<svg width="251" height="166" viewBox="0 0 251 166" fill="none" xmlns="http://www.w3.org/2000/svg">
<rect width="251" height="166" rx="25" fill="#B8002C"/>
<g filter="url(#filter0_d_14_2)">
<path d="M181 131V34H214.221C220.057 34 224.958 34.9946 228.923 36.9839C232.914 38.9731 235.919 41.7834 237.939 45.4145C239.985 49.0457 241.007 53.3242 241.007 58.25C241.007 61.818 240.384 65.0703 239.137 68.0068C237.914 70.9434 236.194 73.4063 233.974 75.3955C231.754 77.3532 229.16 78.7109 226.192 79.4687V80.416C229.485 80.5739 232.477 81.6317 235.171 83.5894C237.865 85.5155 240.009 88.1836 241.606 91.5938C243.202 94.9723 244 98.9508 244 103.529C244 108.834 242.903 113.555 240.708 117.691C238.538 121.827 235.445 125.08 231.43 127.448C227.415 129.816 222.626 131 217.064 131H181ZM201.8 109.971H211.527C215.019 109.971 217.638 109.15 219.384 107.508C221.129 105.834 222.002 103.371 222.002 100.119C222.002 97.8457 221.591 95.9196 220.768 94.3408C219.945 92.762 218.773 91.5622 217.251 90.7412C215.755 89.9202 213.947 89.5098 211.827 89.5098H201.8V109.971ZM201.8 73.2168H210.33C212.151 73.2168 213.76 72.8537 215.156 72.1274C216.553 71.4012 217.638 70.3592 218.411 69.0015C219.209 67.6121 219.608 65.9229 219.608 63.9336C219.608 60.9339 218.76 58.6447 217.064 57.0659C215.368 55.4556 213.223 54.6504 210.629 54.6504H201.8V73.2168Z" fill="url(#paint0_linear_14_2)" shape-rendering="crispEdges"/>
</g>
<g filter="url(#filter1_d_14_2)">
<path d="M139.18 131.436H107V34H138.854C147.457 34 154.889 35.9506 161.151 39.8519C167.44 43.7214 172.286 49.3037 175.69 56.5987C179.12 63.8621 180.835 72.5685 180.835 82.7181C180.835 92.8678 179.134 101.59 175.73 108.885C172.327 116.148 167.508 121.731 161.274 125.632C155.039 129.502 147.675 131.436 139.18 131.436ZM131.706 108.98H138.364C142.502 108.98 140.028 108.203 142.941 106.649C145.881 105.095 148.114 102.415 149.638 98.6086C151.19 94.8025 151.966 89.5057 151.966 82.7181C151.966 75.9306 151.176 70.6338 149.597 66.8277C148.045 63.0215 145.759 60.3414 142.737 58.7873C139.742 57.2331 142.066 56.456 137.71 56.456H131.706V108.98Z" fill="url(#paint1_linear_14_2)" shape-rendering="crispEdges"/>
</g>
<g filter="url(#filter2_d_14_2)">
<path d="M11 34H39.2599L58.6989 89.1885H59.679L79.1179 34H107.378V131.436H85.1619V75.1059H84.5085L65.8864 130.675H52.4915L33.8693 74.7253H33.2159V131.436H11V34Z" fill="white"/>
</g>
<defs>
<filter id="filter0_d_14_2" x="177" y="34" width="71" height="105" filterUnits="userSpaceOnUse" color-interpolation-filters="sRGB">
<feFlood flood-opacity="0" result="BackgroundImageFix"/>
<feColorMatrix in="SourceAlpha" type="matrix" values="0 0 0 0 0 0 0 0 0 0 0 0 0 0 0 0 0 0 127 0" result="hardAlpha"/>
<feOffset dy="4"/>
<feGaussianBlur stdDeviation="2"/>
<feComposite in2="hardAlpha" operator="out"/>
<feColorMatrix type="matrix" values="0 0 0 0 0 0 0 0 0 0 0 0 0 0 0 0 0 0 0.25 0"/>
<feBlend mode="normal" in2="BackgroundImageFix" result="effect1_dropShadow_14_2"/>
<feBlend mode="normal" in="SourceGraphic" in2="effect1_dropShadow_14_2" result="shape"/>
</filter>
<filter id="filter1_d_14_2" x="103" y="34" width="81.8352" height="105.436" filterUnits="userSpaceOnUse" color-interpolation-filters="sRGB">
<feFlood flood-opacity="0" result="BackgroundImageFix"/>
<feColorMatrix in="SourceAlpha" type="matrix" values="0 0 0 0 0 0 0 0 0 0 0 0 0 0 0 0 0 0 127 0" result="hardAlpha"/>
<feOffset dy="4"/>
<feGaussianBlur stdDeviation="2"/>
<feComposite in2="hardAlpha" operator="out"/>
<feColorMatrix type="matrix" values="0 0 0 0 0 0 0 0 0 0 0 0 0 0 0 0 0 0 0.25 0"/>
<feBlend mode="normal" in2="BackgroundImageFix" result="effect1_dropShadow_14_2"/>
<feBlend mode="normal" in="SourceGraphic" in2="effect1_dropShadow_14_2" result="shape"/>
</filter>
<filter id="filter2_d_14_2" x="7" y="34" width="104.378" height="105.436" filterUnits="userSpaceOnUse" color-interpolation-filters="sRGB">
<feFlood flood-opacity="0" result="BackgroundImageFix"/>
<feColorMatrix in="SourceAlpha" type="matrix" values="0 0 0 0 0 0 0 0 0 0 0 0 0 0 0 0 0 0 127 0" result="hardAlpha"/>
<feOffset dy="4"/>
<feGaussianBlur stdDeviation="2"/>
<feComposite in2="hardAlpha" operator="out"/>
<feColorMatrix type="matrix" values="0 0 0 0 0 0 0 0 0 0 0 0 0 0 0 0 0 0 0.25 0"/>
<feBlend mode="normal" in2="BackgroundImageFix" result="effect1_dropShadow_14_2"/>
<feBlend mode="normal" in="SourceGraphic" in2="effect1_dropShadow_14_2" result="shape"/>
</filter>
<linearGradient id="paint0_linear_14_2" x1="-84.143" y1="-29.1617" x2="-91.082" y2="114.711" gradientUnits="userSpaceOnUse">
<stop stop-color="#0500FF" stop-opacity="0.81"/>
<stop offset="1" stop-color="#FF01E6"/>
</linearGradient>
<linearGradient id="paint1_linear_14_2" x1="-103.841" y1="-29.4458" x2="-110.258" y2="115.126" gradientUnits="userSpaceOnUse">
<stop stop-color="#0500FF" stop-opacity="0.81"/>
<stop offset="1" stop-color="#FF01E6"/>
</linearGradient>
</defs>
</svg>
